# Blender v2.78 (sub 0) OBJ File: 'model.obj'
# www.blender.org
mtllib avocado.mtl
o model
v -0.043108 -0.081125 -0.180760
v -0.082838 -0.440086 -0.159331
v -0.090389 -0.258240 -0.231641
v -0.043108 -0.081125 -0.180760
v -0.090389 -0.258240 -0.231641
v -0.082838 -0.440086 -0.159331
v -0.009713 -0.004615 -0.021419
v -0.031273 0.167098 -0.177231
v -0.043108 -0.081125 -0.180760
v 0.001062 -0.136810 0.010572
v -0.009713 -0.004615 -0.021419
v -0.057521 -0.180271 -0.176530
v -0.009713 -0.004615 -0.021419
v 0.055323 0.110659 0.096454
v -0.031273 0.167098 -0.177231
v 0.001062 -0.136810 0.010572
v 0.055323 0.110659 0.096454
v -0.009713 -0.004615 -0.021419
v -0.051764 -0.339258 -0.057459
v 0.035188 -0.296055 0.146222
v 0.049399 -0.248100 0.166580
v 0.001062 -0.136810 0.010572
v 0.055323 0.110659 0.096454
v 0.059756 0.334119 0.007579
v -0.031273 0.167098 -0.177231
v 0.117973 0.183004 0.233712
v 0.117046 0.239508 0.205684
v 0.059756 0.334119 0.007579
v 0.055323 0.110659 0.096454
v 0.059756 0.334119 0.007579
v 0.030525 0.327233 -0.109359
v -0.031273 0.167098 -0.177231
v 0.109701 -0.078967 0.201412
v 0.001062 -0.136810 0.010572
v 0.049399 -0.248100 0.166580
v 0.035188 -0.296055 0.146222
v -0.051764 -0.339258 -0.057459
v 0.013589 -0.393457 0.118819
v 0.125529 0.001502 0.226109
v 0.055323 0.110659 0.096454
v 0.001062 -0.136810 0.010572
v 0.109701 -0.078967 0.201412
v 0.117973 0.183004 0.233712
v 0.055323 0.110659 0.096454
v 0.125529 0.001502 0.226109
v -0.031273 0.167098 -0.177231
v 0.030525 0.327233 -0.109359
v -0.005975 0.268129 -0.201534
v -0.057521 -0.180271 -0.176530
v -0.009713 -0.004615 -0.021419
v -0.043108 -0.081125 -0.180760
v -0.057521 -0.180271 -0.176530
v -0.065016 -0.224547 -0.164436
v 0.001062 -0.136810 0.010572
v -0.071620 -0.297608 -0.147001
v -0.051764 -0.339258 -0.057459
v 0.001062 -0.136810 0.010572
v -0.065016 -0.224547 -0.164436
v -0.090389 -0.258240 -0.231641
v -0.043108 -0.081125 -0.180760
v -0.038186 -0.031931 -0.265128
v -0.057521 -0.180271 -0.176530
v -0.043108 -0.081125 -0.180760
v -0.090389 -0.258240 -0.231641
v -0.043108 -0.081125 -0.180760
v -0.031273 0.167098 -0.177231
v -0.038186 -0.031931 -0.265128
v 0.125529 0.001502 0.226109
v 0.109701 -0.078967 0.201412
v 0.160044 -0.052161 0.289850
v -0.071620 -0.297608 -0.147001
v -0.065016 -0.224547 -0.164436
v -0.090389 -0.258240 -0.231641
v 0.109701 -0.078967 0.201412
v 0.049399 -0.248100 0.166580
v 0.064007 -0.281736 0.213732
v 0.160044 -0.052161 0.289850
v 0.064007 -0.281736 0.213732
v 0.035188 -0.296055 0.146222
v 0.013589 -0.393457 0.118819
v 0.035210 -0.411389 0.177138
v -0.082838 -0.440086 -0.159331
v -0.051764 -0.339258 -0.057459
v -0.071620 -0.297608 -0.147001
v -0.090389 -0.258240 -0.231641
v 0.013589 -0.393457 0.118819
v -0.051764 -0.339258 -0.057459
v -0.031628 -0.486680 -0.001906
v 0.035210 -0.411389 0.177138
v -0.082838 -0.440086 -0.159331
v -0.031628 -0.486680 -0.001906
v -0.051764 -0.339258 -0.057459
v -0.031273 0.167098 -0.177231
v -0.026224 0.235345 -0.252662
v -0.038186 -0.031931 -0.265128
v -0.026224 0.235345 -0.252662
v -0.005975 0.268129 -0.201534
v 0.030525 0.327233 -0.109359
v 0.055658 0.388922 -0.160102
v -0.031273 0.167098 -0.177231
v -0.005975 0.268129 -0.201534
v -0.026224 0.235345 -0.252662
v 0.137563 0.205625 0.276632
v 0.117973 0.183004 0.233712
v 0.125529 0.001502 0.226109
v 0.160044 -0.052161 0.289850
v 0.059756 0.334119 0.007579
v 0.117046 0.239508 0.205684
v 0.137563 0.205625 0.276632
v 0.108711 0.378316 0.119079
v 0.030525 0.327233 -0.109359
v 0.055103 0.496448 0.020708
v 0.055658 0.388922 -0.160102
v 0.055103 0.496448 0.020708
v 0.059756 0.334119 0.007579
v 0.108711 0.378316 0.119079
v 0.030525 0.327233 -0.109359
v 0.059756 0.334119 0.007579
v 0.055103 0.496448 0.020708
v 0.035188 -0.296055 0.146222
v 0.064007 -0.281736 0.213732
v 0.049399 -0.248100 0.166580
v 0.117973 0.183004 0.233712
v 0.137563 0.205625 0.276632
v 0.117046 0.239508 0.205684
v -0.057521 -0.180271 -0.176530
v -0.090389 -0.258240 -0.231641
v -0.065016 -0.224547 -0.164436
v -0.090389 -0.258240 -0.231641
v 0.045334 -0.285811 -0.249270
v -0.082838 -0.440086 -0.159331
v 0.045334 -0.285811 -0.249270
v -0.038186 -0.031931 -0.265128
v 0.158184 -0.052950 -0.262487
v -0.038186 -0.031931 -0.265128
v 0.045334 -0.285811 -0.249270
v -0.090389 -0.258240 -0.231641
v 0.077038 -0.448411 -0.090529
v -0.031628 -0.486680 -0.001906
v -0.082838 -0.440086 -0.159331
v -0.031628 -0.486680 -0.001906
v 0.077038 -0.448411 0.105686
v 0.035210 -0.411389 0.177138
v 0.077038 -0.448411 0.105686
v 0.077038 -0.448411 -0.090529
v 0.212123 -0.329583 0.007579
v 0.077038 -0.448411 -0.090529
v 0.077038 -0.448411 0.105686
v -0.031628 -0.486680 -0.001906
v 0.274558 0.082378 -0.151163
v 0.223258 0.345472 -0.090529
v 0.307142 0.186314 0.007579
v 0.223258 0.345472 -0.090529
v 0.135703 0.204837 -0.249270
v 0.055658 0.388922 -0.160102
v 0.135703 0.204837 -0.249270
v 0.274558 0.082378 -0.151163
v 0.158184 -0.052950 -0.262487
v 0.274558 0.082378 -0.151163
v 0.135703 0.204837 -0.249270
v 0.223258 0.345472 -0.090529
v 0.306262 -0.080223 0.007579
v 0.274558 0.082378 -0.151163
v 0.307142 0.186314 0.007579
v 0.274558 0.082378 -0.151163
v 0.218707 -0.220859 -0.151163
v 0.158184 -0.052950 -0.262487
v 0.218707 -0.220859 -0.151163
v 0.306262 -0.080223 0.007579
v 0.212123 -0.329583 0.007579
v 0.306262 -0.080223 0.007579
v 0.218707 -0.220859 -0.151163
v 0.274558 0.082378 -0.151163
v 0.274558 0.082378 0.166320
v 0.306262 -0.080223 0.007579
v 0.307142 0.186314 0.007579
v 0.306262 -0.080223 0.007579
v 0.218707 -0.220859 0.166320
v 0.212123 -0.329583 0.007579
v 0.218707 -0.220859 0.166320
v 0.274558 0.082378 0.166320
v 0.160044 -0.052161 0.289850
v 0.274558 0.082378 0.166320
v 0.218707 -0.220859 0.166320
v 0.306262 -0.080223 0.007579
v 0.223258 0.345472 0.105686
v 0.274558 0.082378 0.166320
v 0.307142 0.186314 0.007579
v 0.274558 0.082378 0.166320
v 0.137563 0.205625 0.276632
v 0.160044 -0.052161 0.289850
v 0.137563 0.205625 0.276632
v 0.223258 0.345472 0.105686
v 0.108711 0.378316 0.119079
v 0.223258 0.345472 0.105686
v 0.137563 0.205625 0.276632
v 0.274558 0.082378 0.166320
v 0.223258 0.345472 -0.090529
v 0.223258 0.345472 0.105686
v 0.307142 0.186314 0.007579
v 0.223258 0.345472 0.105686
v 0.055103 0.496448 0.020708
v 0.108711 0.378316 0.119079
v 0.055103 0.496448 0.020708
v 0.223258 0.345472 -0.090529
v 0.055658 0.388922 -0.160102
v 0.223258 0.345472 -0.090529
v 0.055103 0.496448 0.020708
v 0.223258 0.345472 0.105686
v -0.038186 -0.031931 -0.265128
v 0.135703 0.204837 -0.249270
v 0.158184 -0.052950 -0.262487
v 0.135703 0.204837 -0.249270
v -0.026224 0.235345 -0.252662
v 0.055658 0.388922 -0.160102
v -0.038186 -0.031931 -0.265128
v -0.026224 0.235345 -0.252662
v 0.135703 0.204837 -0.249270
v 0.077038 -0.448411 -0.090529
v 0.218707 -0.220859 -0.151163
v 0.212123 -0.329583 0.007579
v 0.218707 -0.220859 -0.151163
v 0.045334 -0.285811 -0.249270
v 0.158184 -0.052950 -0.262487
v 0.045334 -0.285811 -0.249270
v 0.077038 -0.448411 -0.090529
v -0.082838 -0.440086 -0.159331
v 0.077038 -0.448411 -0.090529
v 0.045334 -0.285811 -0.249270
v 0.218707 -0.220859 -0.151163
v 0.064007 -0.281736 0.213732
v 0.218707 -0.220859 0.166320
v 0.160044 -0.052161 0.289850
v 0.218707 -0.220859 0.166320
v 0.077038 -0.448411 0.105686
v 0.212123 -0.329583 0.007579
v 0.077038 -0.448411 0.105686
v 0.064007 -0.281736 0.213732
v 0.035210 -0.411389 0.177138
v 0.064007 -0.281736 0.213732
v 0.077038 -0.448411 0.105686
v 0.218707 -0.220859 0.166320
v -0.087806 -0.107034 -0.038163
v -0.014583 -0.148206 -0.042031
v -0.055171 -0.140315 0.019779
v -0.014583 -0.148206 -0.042031
v -0.035721 -0.094195 -0.102921
v 0.033445 -0.118472 -0.090394
v -0.035721 -0.094195 -0.102921
v -0.087806 -0.107034 -0.038163
v -0.091130 -0.048426 -0.083814
v -0.087806 -0.107034 -0.038163
v -0.035721 -0.094195 -0.102921
v -0.014583 -0.148206 -0.042031
v -0.102405 -0.087486 0.042312
v -0.087806 -0.107034 -0.038163
v -0.055171 -0.140315 0.019779
v -0.087806 -0.107034 -0.038163
v -0.123543 -0.033475 -0.018578
v -0.091130 -0.048426 -0.083814
v -0.123543 -0.033475 -0.018578
v -0.102405 -0.087486 0.042312
v -0.115967 -0.015170 0.053098
v -0.102405 -0.087486 0.042312
v -0.123543 -0.033475 -0.018578
v -0.087806 -0.107034 -0.038163
v -0.038212 -0.116576 0.088181
v -0.102405 -0.087486 0.042312
v -0.055171 -0.140315 0.019779
v -0.102405 -0.087486 0.042312
v -0.073944 -0.043019 0.107765
v -0.115967 -0.015170 0.053098
v -0.073944 -0.043019 0.107765
v -0.038212 -0.116576 0.088181
v -0.006747 -0.064662 0.131133
v -0.038212 -0.116576 0.088181
v -0.073944 -0.043019 0.107765
v -0.102405 -0.087486 0.042312
v 0.016067 -0.154104 0.036054
v -0.038212 -0.116576 0.088181
v -0.055171 -0.140315 0.019779
v -0.038212 -0.116576 0.088181
v 0.044528 -0.109636 0.101506
v -0.006747 -0.064662 0.131133
v 0.044528 -0.109636 0.101506
v 0.016067 -0.154104 0.036054
v 0.085592 -0.128506 0.042450
v 0.016067 -0.154104 0.036054
v 0.044528 -0.109636 0.101506
v -0.038212 -0.116576 0.088181
v -0.014583 -0.148206 -0.042031
v 0.016067 -0.154104 0.036054
v -0.055171 -0.140315 0.019779
v 0.016067 -0.154104 0.036054
v 0.068153 -0.141264 -0.028704
v 0.085592 -0.128506 0.042450
v 0.068153 -0.141264 -0.028704
v -0.014583 -0.148206 -0.042031
v 0.033445 -0.118472 -0.090394
v -0.014583 -0.148206 -0.042031
v 0.068153 -0.141264 -0.028704
v 0.016067 -0.154104 0.036054
v -0.108145 0.044373 0.009242
v -0.123543 -0.033475 -0.018578
v -0.115967 -0.015170 0.053098
v -0.123543 -0.033475 -0.018578
v -0.093542 0.024825 -0.071232
v -0.091130 -0.048426 -0.083814
v -0.093542 0.024825 -0.071232
v -0.108145 0.044373 0.009242
v -0.064928 0.084017 -0.036483
v -0.108145 0.044373 0.009242
v -0.093542 0.024825 -0.071232
v -0.123543 -0.033475 -0.018578
v -0.039263 -0.012702 -0.123359
v -0.035721 -0.094195 -0.102921
v -0.091130 -0.048426 -0.083814
v -0.035721 -0.094195 -0.102921
v 0.033956 -0.053873 -0.127227
v 0.033445 -0.118472 -0.090394
v 0.033956 -0.053873 -0.127227
v -0.039263 -0.012702 -0.123359
v 0.027411 0.020173 -0.125166
v -0.039263 -0.012702 -0.123359
v 0.033956 -0.053873 -0.127227
v -0.035721 -0.094195 -0.102921
v 0.098154 -0.082964 -0.081359
v 0.068153 -0.141264 -0.028704
v 0.033445 -0.118472 -0.090394
v 0.068153 -0.141264 -0.028704
v 0.128809 -0.088862 -0.003275
v 0.085592 -0.128506 0.042450
v 0.128809 -0.088862 -0.003275
v 0.098154 -0.082964 -0.081359
v 0.136631 -0.029319 -0.047130
v 0.098154 -0.082964 -0.081359
v 0.128809 -0.088862 -0.003275
v 0.068153 -0.141264 -0.028704
v 0.114206 -0.069314 0.077200
v 0.044528 -0.109636 0.101506
v 0.085592 -0.128506 0.042450
v 0.044528 -0.109636 0.101506
v 0.059927 -0.031787 0.129327
v -0.006747 -0.064662 0.131133
v 0.059927 -0.031787 0.129327
v 0.114206 -0.069314 0.077200
v 0.111794 0.003937 0.089781
v 0.114206 -0.069314 0.077200
v 0.059927 -0.031787 0.129327
v 0.044528 -0.109636 0.101506
v -0.013292 0.009384 0.133194
v -0.073944 -0.043019 0.107765
v -0.006747 -0.064662 0.131133
v -0.073944 -0.043019 0.107765
v -0.077490 0.038475 0.087326
v -0.115967 -0.015170 0.053098
v -0.077490 0.038475 0.087326
v -0.013292 0.009384 0.133194
v -0.012781 0.073983 0.096361
v -0.013292 0.009384 0.133194
v -0.077490 0.038475 0.087326
v -0.073944 -0.043019 0.107765
v 0.058876 0.072088 -0.082213
v 0.004597 0.109615 -0.030086
v 0.075835 0.095826 -0.013812
v 0.004597 0.109615 -0.030086
v -0.023864 0.065147 -0.095538
v -0.064928 0.084017 -0.036483
v -0.023864 0.065147 -0.095538
v 0.058876 0.072088 -0.082213
v 0.027411 0.020173 -0.125166
v 0.058876 0.072088 -0.082213
v -0.023864 0.065147 -0.095538
v 0.004597 0.109615 -0.030086
v 0.123069 0.042997 -0.036345
v 0.058876 0.072088 -0.082213
v 0.075835 0.095826 -0.013812
v 0.058876 0.072088 -0.082213
v 0.094608 -0.001470 -0.101797
v 0.027411 0.020173 -0.125166
v 0.094608 -0.001470 -0.101797
v 0.123069 0.042997 -0.036345
v 0.136631 -0.029319 -0.047130
v 0.123069 0.042997 -0.036345
v 0.094608 -0.001470 -0.101797
v 0.058876 0.072088 -0.082213
v 0.108470 0.062545 0.044130
v 0.123069 0.042997 -0.036345
v 0.075835 0.095826 -0.013812
v 0.123069 0.042997 -0.036345
v 0.144207 -0.011014 0.024546
v 0.136631 -0.029319 -0.047130
v 0.144207 -0.011014 0.024546
v 0.108470 0.062545 0.044130
v 0.111794 0.003937 0.089781
v 0.108470 0.062545 0.044130
v 0.144207 -0.011014 0.024546
v 0.123069 0.042997 -0.036345
v 0.035247 0.103717 0.047998
v 0.108470 0.062545 0.044130
v 0.075835 0.095826 -0.013812
v 0.108470 0.062545 0.044130
v 0.056385 0.049706 0.108888
v 0.111794 0.003937 0.089781
v 0.056385 0.049706 0.108888
v 0.035247 0.103717 0.047998
v -0.012781 0.073983 0.096361
v 0.035247 0.103717 0.047998
v 0.056385 0.049706 0.108888
v 0.108470 0.062545 0.044130
v 0.004597 0.109615 -0.030086
v 0.035247 0.103717 0.047998
v 0.075835 0.095826 -0.013812
v 0.035247 0.103717 0.047998
v -0.047489 0.096775 0.034672
v -0.012781 0.073983 0.096361
v -0.047489 0.096775 0.034672
v 0.004597 0.109615 -0.030086
v -0.064928 0.084017 -0.036483
v 0.004597 0.109615 -0.030086
v -0.047489 0.096775 0.034672
v 0.035247 0.103717 0.047998
v -0.039263 -0.012702 -0.123359
v -0.023864 0.065147 -0.095538
v 0.027411 0.020173 -0.125166
v -0.023864 0.065147 -0.095538
v -0.093542 0.024825 -0.071232
v -0.064928 0.084017 -0.036483
v -0.093542 0.024825 -0.071232
v -0.039263 -0.012702 -0.123359
v -0.091130 -0.048426 -0.083814
v -0.039263 -0.012702 -0.123359
v -0.093542 0.024825 -0.071232
v -0.023864 0.065147 -0.095538
v 0.098154 -0.082964 -0.081359
v 0.094608 -0.001470 -0.101797
v 0.136631 -0.029319 -0.047130
v 0.094608 -0.001470 -0.101797
v 0.033956 -0.053873 -0.127227
v 0.027411 0.020173 -0.125166
v 0.033956 -0.053873 -0.127227
v 0.098154 -0.082964 -0.081359
v 0.033445 -0.118472 -0.090394
v 0.098154 -0.082964 -0.081359
v 0.033956 -0.053873 -0.127227
v 0.094608 -0.001470 -0.101797
v 0.114206 -0.069314 0.077200
v 0.144207 -0.011014 0.024546
v 0.111794 0.003937 0.089781
v 0.144207 -0.011014 0.024546
v 0.128809 -0.088862 -0.003275
v 0.136631 -0.029319 -0.047130
v 0.128809 -0.088862 -0.003275
v 0.114206 -0.069314 0.077200
v 0.085592 -0.128506 0.042450
v 0.114206 -0.069314 0.077200
v 0.128809 -0.088862 -0.003275
v 0.144207 -0.011014 0.024546
v -0.013292 0.009384 0.133194
v 0.056385 0.049706 0.108888
v -0.012781 0.073983 0.096361
v 0.056385 0.049706 0.108888
v 0.059927 -0.031787 0.129327
v 0.111794 0.003937 0.089781
v 0.059927 -0.031787 0.129327
v -0.013292 0.009384 0.133194
v -0.006747 -0.064662 0.131133
v -0.013292 0.009384 0.133194
v 0.059927 -0.031787 0.129327
v 0.056385 0.049706 0.108888
v -0.108145 0.044373 0.009242
v -0.047489 0.096775 0.034672
v -0.064928 0.084017 -0.036483
v -0.047489 0.096775 0.034672
v -0.077490 0.038475 0.087326
v -0.012781 0.073983 0.096361
v -0.077490 0.038475 0.087326
v -0.108145 0.044373 0.009242
v -0.115967 -0.015170 0.053098
v -0.108145 0.044373 0.009242
v -0.077490 0.038475 0.087326
v -0.047489 0.096775 0.034672
vn -0.1931 -0.3695 -0.9090
vn 0.0070 -0.0600 -0.9982
vn -0.1501 -0.1107 -0.9824
vn 0.0830 -0.9479 -0.3076
vn -0.0922 -0.9051 0.4150
vn 0.6605 -0.7508 -0.0000
vn 0.3322 -0.9432 0.0000
vn 0.8998 0.2568 -0.3528
vn 0.4383 0.5390 -0.7193
vn 0.6287 0.0944 -0.7719
vn 0.7085 0.2868 -0.6448
vn 0.9800 -0.0032 -0.1990
vn 0.7650 -0.1409 -0.6284
vn 0.9168 -0.3461 -0.1990
vn 0.9187 -0.1692 -0.3568
vn 0.9800 -0.0032 0.1990
vn 0.9168 -0.3461 0.1990
vn 0.8002 -0.1474 0.5813
vn 0.9187 -0.1692 0.3568
vn 0.8998 0.2568 0.3528
vn 0.6754 0.0964 0.7311
vn 0.2733 0.6729 0.6874
vn 0.7434 0.2845 0.6054
vn 0.8847 0.4663 -0.0000
vn 0.2754 0.6859 0.6736
vn 0.3987 0.7888 -0.4679
vn 0.6681 0.7441 -0.0000
vn 0.0191 0.0529 -0.9984
vn 0.1070 0.4707 -0.8758
vn 0.0294 0.0453 -0.9985
vn 0.7493 -0.5605 -0.3528
vn 0.5538 -0.3122 -0.7719
vn 0.2739 -0.6440 -0.7143
vn 0.5598 -0.5204 -0.6448
vn 0.4166 -0.4383 0.7964
vn 0.7493 -0.5605 0.3528
vn 0.7295 -0.3310 0.5986
vn 0.4224 -0.4696 0.7753
vn -0.4875 -0.8470 -0.2120
vn -0.1554 -0.7652 -0.6248
vn -0.6222 -0.5027 -0.6001
vn -0.4435 -0.7414 -0.5037
vn -0.7389 -0.6732 0.0295
vn -0.8736 -0.3289 -0.3587
vn -0.9667 -0.2043 0.1543
vn -0.9041 -0.4229 -0.0613
vn -0.5969 -0.7005 0.3911
vn -0.8247 -0.2316 0.5160
vn -0.4155 -0.4170 0.8084
vn -0.6440 -0.4729 0.6013
vn -0.2578 -0.8912 0.3732
vn -0.0763 -0.6077 0.7905
vn 0.2697 -0.8470 0.4582
vn -0.0226 -0.8224 0.5685
vn -0.1901 -0.9818 0.0005
vn 0.3373 -0.9375 0.0854
vn 0.1419 -0.8999 -0.4123
vn 0.1013 -0.9882 -0.1144
vn -0.9831 0.1731 0.0597
vn -0.8900 0.0486 -0.4533
vn -0.7918 0.5448 -0.2760
vn -0.9342 0.2687 -0.2348
vn -0.4832 -0.2327 -0.8440
vn -0.0165 -0.4952 -0.8686
vn -0.0391 0.0244 -0.9989
vn -0.1889 -0.2466 -0.9505
vn 0.4646 -0.7132 -0.5249
vn 0.6600 -0.7508 -0.0271
vn 0.8513 -0.3791 -0.3628
vn 0.6926 -0.6461 -0.3207
vn 0.5506 -0.6043 0.5759
vn 0.2046 -0.3650 0.9082
vn 0.6487 -0.1080 0.7533
vn 0.4921 -0.3776 0.7843
vn -0.3441 -0.0565 0.9372
vn -0.7534 0.1289 0.6448
vn -0.3667 0.4630 0.8069
vn -0.5133 0.1877 0.8374
vn 0.2578 0.8912 -0.3732
vn -0.2697 0.8470 -0.4582
vn 0.0763 0.6077 -0.7905
vn 0.0226 0.8224 -0.5685
vn 0.5969 0.7005 -0.3911
vn 0.4154 0.4170 -0.8084
vn 0.8247 0.2316 -0.5160
vn 0.6440 0.4729 -0.6013
vn 0.7389 0.6732 -0.0295
vn 0.9667 0.2043 -0.1544
vn 0.8736 0.3289 0.3587
vn 0.9041 0.4229 0.0613
vn 0.4875 0.8470 0.2120
vn 0.6222 0.5027 0.6001
vn 0.1554 0.7652 0.6248
vn 0.4435 0.7414 0.5037
vn 0.1901 0.9818 -0.0005
vn -0.1419 0.8999 0.4123
vn -0.3373 0.9375 -0.0854
vn -0.1013 0.9882 0.1144
vn -0.2046 0.3650 -0.9082
vn -0.5506 0.6043 -0.5759
vn -0.6487 0.1080 -0.7533
vn -0.4921 0.3776 -0.7843
vn 0.7534 -0.1289 -0.6448
vn 0.3441 0.0565 -0.9372
vn 0.3667 -0.4630 -0.8069
vn 0.5133 -0.1877 -0.8374
vn 0.8900 -0.0486 0.4533
vn 0.9831 -0.1731 -0.0597
vn 0.7918 -0.5448 0.2760
vn 0.9342 -0.2687 0.2348
vn 0.0165 0.4952 0.8686
vn 0.4832 0.2327 0.8440
vn 0.0391 -0.0244 0.9989
vn 0.1889 0.2466 0.9505
vn -0.6600 0.7508 0.0271
vn -0.4646 0.7132 0.5249
vn -0.8513 0.3791 0.3628
vn -0.6926 0.6461 0.3207
vn 0.9047 -0.1245 -0.4075
vn -0.9047 0.1245 0.4075
vn -0.9818 0.0442 0.1846
vn -0.9540 -0.0052 0.2999
vn -0.9256 0.1840 0.3308
vn -0.8900 0.0374 0.4544
vn -0.9221 0.1166 0.3689
vn -0.9337 0.1482 0.3260
vn -0.9270 0.1543 0.3418
vn -0.9379 0.2693 0.2186
vn -0.8747 0.2232 0.4303
vn -0.9226 0.0997 0.3727
vn -0.8716 0.0211 0.4898
vn -0.8969 -0.0557 0.4387
vn -0.9402 0.2815 0.1918
vn -0.9798 0.1482 0.1342
vn -0.9434 0.2260 0.2429
vn -0.9474 0.1527 0.2811
vn -0.9221 0.1167 0.3689
vn -0.9685 0.2354 0.0807
vn -0.9278 0.1495 0.3419
vn -0.9984 0.0480 -0.0302
vn -0.8747 0.2232 0.4302
vn -0.9690 0.0555 0.2407
vn -0.9373 0.0033 0.3485
vn -0.9521 -0.0150 0.3053
vn -0.9986 0.0459 -0.0253
vn -0.8987 0.4313 0.0793
vn -0.9402 0.2816 0.1918
vn -0.9256 0.1587 0.3435
vn -0.9530 0.2591 -0.1570
vn -0.9050 -0.0600 0.4211
vn -0.9684 -0.0476 0.2449
vn -0.9434 0.2260 0.2428
vn -0.8747 0.2233 0.4302
vn -0.8987 0.4314 0.0793
usemtl mat23
s off
f 129//1 130//1 131//1
f 132//2 133//2 134//2
f 135//3 136//3 137//3
f 138//4 139//4 140//4
f 141//5 142//5 143//5
f 144//6 145//6 146//6
f 147//7 148//7 149//7
f 150//8 151//8 152//8
f 153//9 154//9 155//9
f 156//10 157//10 158//10
f 159//11 160//11 161//11
f 162//12 163//12 164//12
f 165//13 166//13 167//13
f 168//14 169//14 170//14
f 171//15 172//15 173//15
f 174//16 175//16 176//16
f 177//17 178//17 179//17
f 180//18 181//18 182//18
f 183//19 184//19 185//19
f 186//20 187//20 188//20
f 189//21 190//21 191//21
f 192//22 193//22 194//22
f 195//23 196//23 197//23
f 198//24 199//24 200//24
f 201//25 202//25 203//25
f 204//26 205//26 206//26
f 207//27 208//27 209//27
f 210//28 211//28 212//28
f 213//29 214//29 215//29
f 216//30 217//30 218//30
f 219//31 220//31 221//31
f 222//32 223//32 224//32
f 225//33 226//33 227//33
f 228//34 229//34 230//34
f 231//35 232//35 233//35
f 234//36 235//36 236//36
f 237//37 238//37 239//37
f 240//38 241//38 242//38
usemtl mat20
f 243//39 244//39 245//39
f 246//40 247//40 248//40
f 249//41 250//41 251//41
f 252//42 253//42 254//42
f 255//43 256//43 257//43
f 258//44 259//44 260//44
f 261//45 262//45 263//45
f 264//46 265//46 266//46
f 267//47 268//47 269//47
f 270//48 271//48 272//48
f 273//49 274//49 275//49
f 276//50 277//50 278//50
f 279//51 280//51 281//51
f 282//52 283//52 284//52
f 285//53 286//53 287//53
f 288//54 289//54 290//54
f 291//55 292//55 293//55
f 294//56 295//56 296//56
f 297//57 298//57 299//57
f 300//58 301//58 302//58
f 303//59 304//59 305//59
f 306//60 307//60 308//60
f 309//61 310//61 311//61
f 312//62 313//62 314//62
f 315//63 316//63 317//63
f 318//64 319//64 320//64
f 321//65 322//65 323//65
f 324//66 325//66 326//66
f 327//67 328//67 329//67
f 330//68 331//68 332//68
f 333//69 334//69 335//69
f 336//70 337//70 338//70
f 339//71 340//71 341//71
f 342//72 343//72 344//72
f 345//73 346//73 347//73
f 348//74 349//74 350//74
f 351//75 352//75 353//75
f 354//76 355//76 356//76
f 357//77 358//77 359//77
f 360//78 361//78 362//78
f 363//79 364//79 365//79
f 366//80 367//80 368//80
f 369//81 370//81 371//81
f 372//82 373//82 374//82
f 375//83 376//83 377//83
f 378//84 379//84 380//84
f 381//85 382//85 383//85
f 384//86 385//86 386//86
f 387//87 388//87 389//87
f 390//88 391//88 392//88
f 393//89 394//89 395//89
f 396//90 397//90 398//90
f 399//91 400//91 401//91
f 402//92 403//92 404//92
f 405//93 406//93 407//93
f 408//94 409//94 410//94
f 411//95 412//95 413//95
f 414//96 415//96 416//96
f 417//97 418//97 419//97
f 420//98 421//98 422//98
f 423//99 424//99 425//99
f 426//100 427//100 428//100
f 429//101 430//101 431//101
f 432//102 433//102 434//102
f 435//103 436//103 437//103
f 438//104 439//104 440//104
f 441//105 442//105 443//105
f 444//106 445//106 446//106
f 447//107 448//107 449//107
f 450//108 451//108 452//108
f 453//109 454//109 455//109
f 456//110 457//110 458//110
f 459//111 460//111 461//111
f 462//112 463//112 464//112
f 465//113 466//113 467//113
f 468//114 469//114 470//114
f 471//115 472//115 473//115
f 474//116 475//116 476//116
f 477//117 478//117 479//117
f 480//118 481//118 482//118
usemtl mat9
f 1//119 2//119 3//119
f 4//120 5//120 6//120
f 7//121 8//121 9//121
f 10//122 11//122 12//122
f 13//123 14//123 15//123
f 16//124 17//124 18//124
f 20//125 22//125 19//125
f 23//126 24//126 25//126
f 27//127 29//127 26//127
f 30//128 31//128 32//128
f 33//129 34//129 35//129
f 36//130 37//130 38//130
f 40//131 42//131 39//131
f 43//132 44//132 45//132
f 46//133 47//133 48//133
f 49//134 50//134 51//134
f 52//135 53//135 54//135
f 56//136 58//136 55//136
f 20//137 21//137 22//137
f 27//127 28//127 29//127
f 40//131 41//131 42//131
f 56//136 57//136 58//136
usemtl mat10
f 59//138 60//138 61//138
f 62//139 63//139 64//139
f 65//140 66//140 67//140
f 68//131 69//131 70//131
f 71//136 72//136 73//136
f 74//141 76//141 77//141
f 79//130 81//130 78//130
f 82//142 84//142 85//142
f 86//143 88//143 89//143
f 90//144 91//144 92//144
f 93//145 94//145 95//145
f 97//146 99//146 96//146
f 100//147 101//147 102//147
f 103//132 105//132 106//132
f 108//148 110//148 107//148
f 111//149 112//149 113//149
f 114//150 115//150 116//150
f 117//151 118//151 119//151
f 120//137 121//137 122//137
f 123//127 124//127 125//127
f 126//152 127//152 128//152
f 74//153 75//153 76//153
f 79//130 80//130 81//130
f 82//142 83//142 84//142
f 86//143 87//143 88//143
f 97//154 98//154 99//154
f 103//132 104//132 105//132
f 108//148 109//148 110//148
