# Blender v2.78 (sub 0) OBJ File: 'UnlitFire.obj'
# www.blender.org
mtllib hole.mtl
o Cube.001
v 0.727000 0.112540 -0.660948
v 0.666667 0.112540 -1.000000
v 0.881341 0.112540 -0.851090
v 1.065038 0.112540 -0.507821
v 0.432568 0.162208 0.715076
v 0.517239 0.141738 0.200000
v 0.000000 0.120726 0.200000
v 0.000000 0.202297 0.827659
v 0.517239 0.141738 -0.200000
v 0.000000 0.120726 -0.200000
v 0.432568 0.178443 -0.797478
v 0.000000 0.162417 -0.867963
v 0.666667 0.112540 1.000000
v 0.791925 0.112540 0.600000
v 1.032793 0.112540 0.600000
v 0.922010 0.112540 0.828675
v 0.869285 0.112540 0.200000
v 1.176889 0.112540 0.200000
v 0.869285 0.112540 -0.200000
v 1.176889 0.112540 -0.200000
v 0.000000 0.112540 -0.200000
v 0.000000 0.112540 -0.867963
v 0.432568 0.112540 -0.797478
v 0.432568 0.112540 -0.200000
v 0.000000 0.091528 0.200000
v 0.432568 0.112540 0.200000
v 0.000000 0.112540 0.600000
v 0.432568 0.112540 0.600000
v 0.000000 0.112540 1.216516
v 0.333333 0.112540 1.164661
v 0.869285 0.168018 -0.200000
v 0.727000 0.168018 -0.660948
v 0.869285 0.168018 0.200000
v 0.791925 0.168018 0.600000
v 0.000000 0.112540 -1.162153
v 0.333333 0.112540 -1.111943
v -0.727000 0.112540 -0.660948
v -1.065038 0.112540 -0.507821
v -0.881341 0.112540 -0.851090
v -0.666667 0.112540 -1.000000
v -0.432568 0.162208 0.715076
v -0.517239 0.141738 0.200000
v -0.517239 0.141738 -0.200000
v -0.432568 0.178443 -0.797478
v -0.666667 0.112540 1.000000
v -0.922010 0.112540 0.828675
v -1.032793 0.112540 0.600000
v -0.791925 0.112540 0.600000
v -1.176889 0.112540 0.200000
v -0.869285 0.112540 0.200000
v -1.176889 0.112540 -0.200000
v -0.869285 0.112540 -0.200000
v -0.432568 0.112540 -0.200000
v -0.432568 0.112540 -0.797478
v -0.432568 0.112540 0.200000
v -0.432568 0.112540 0.600000
v -0.333333 0.112540 1.164661
v -0.869285 0.168018 -0.200000
v -0.727000 0.168018 -0.660948
v -0.869285 0.168018 0.200000
v -0.791925 0.168018 0.600000
v -0.333333 0.112540 -1.111943
vn 0.0000 -1.0000 -0.0000
vn 0.0157 0.9955 -0.0934
vn 0.0034 0.9965 -0.0831
vn 0.0583 0.9900 -0.1287
vn -0.0406 0.9992 0.0000
vn -0.0444 0.9970 0.0642
vn -0.0431 0.9969 0.0651
vn -0.0405 0.9969 0.0670
vn 0.0255 -0.9993 -0.0275
vn 0.0231 -0.9994 -0.0249
vn 0.0485 -0.9975 -0.0524
vn 0.0255 -0.9993 0.0275
vn 0.0231 -0.9994 0.0249
vn -0.0184 0.9987 0.0485
vn -0.0473 0.9983 0.0354
vn -0.0744 0.9970 0.0230
vn -0.0744 0.9972 0.0000
vn -0.0473 0.9983 -0.0331
vn -0.0550 0.9981 -0.0278
vn -0.0305 0.9985 -0.0447
vn -0.0157 0.9955 -0.0934
vn -0.0034 0.9965 -0.0831
vn 0.0405 0.9981 -0.0463
vn 0.0406 0.9992 0.0000
vn 0.0431 0.9969 0.0651
vn 0.0444 0.9970 0.0642
vn 0.0405 0.9969 0.0670
vn -0.0231 -0.9994 -0.0249
vn -0.0255 -0.9993 -0.0275
vn -0.0485 -0.9975 -0.0524
vn -0.0255 -0.9993 0.0275
vn -0.0231 -0.9994 0.0249
vn -0.0485 -0.9975 0.0524
vn 0.0473 0.9983 0.0354
vn 0.0184 0.9987 0.0485
vn 0.0744 0.9970 0.0230
vn 0.0744 0.9972 0.0000
vn 0.0473 0.9983 -0.0331
vn 0.0550 0.9981 -0.0278
vn 0.0744 0.9971 -0.0144
vn -0.0405 0.9981 -0.0463
vn -0.0471 0.9970 0.0622
vn 0.0485 -0.9975 0.0524
vn 0.0074 0.9982 0.0603
vn -0.0744 0.9971 -0.0144
vn -0.0583 0.9900 -0.1287
vn 0.0471 0.9970 0.0622
vn -0.0074 0.9982 0.0603
vn 0.0305 0.9985 -0.0447
usemtl Material.002
s 1
f 1//1 3//1 4//1
f 5//2 7//3 8//4
f 9//5 7//5 6//5
f 11//6 10//7 9//8
f 14//1 16//1 13//1
f 17//1 15//1 14//1
f 19//1 18//1 17//1
f 19//1 4//1 20//1
f 21//1 23//1 24//1
f 24//1 1//1 19//1
f 21//9 26//10 25//11
f 24//1 17//1 26//1
f 27//12 26//13 28//1
f 26//1 14//1 28//1
f 27//1 30//1 29//1
f 28//1 13//1 30//1
f 32//14 9//15 31//16
f 31//17 6//17 33//17
f 34//18 6//19 5//20
f 22//1 36//1 23//1
f 23//1 2//1 1//1
f 37//1 39//1 40//1
f 41//21 7//22 42//23
f 7//24 43//24 42//24
f 10//25 44//26 43//27
f 46//1 48//1 45//1
f 47//1 50//1 48//1
f 49//1 52//1 50//1
f 52//1 38//1 37//1
f 21//1 54//1 22//1
f 53//1 37//1 54//1
f 55//28 21//29 25//30
f 50//1 53//1 55//1
f 27//31 55//32 25//33
f 48//1 55//1 56//1
f 57//1 27//1 29//1
f 45//1 56//1 57//1
f 43//34 59//35 58//36
f 42//37 58//37 60//37
f 61//38 42//39 60//40
f 22//1 62//1 35//1
f 54//1 40//1 62//1
f 1//1 2//1 3//1
f 5//2 6//41 7//3
f 9//5 10//5 7//5
f 11//6 12//42 10//7
f 14//1 15//1 16//1
f 17//1 18//1 15//1
f 19//1 20//1 18//1
f 19//1 1//1 4//1
f 21//1 22//1 23//1
f 24//1 23//1 1//1
f 21//9 24//1 26//10
f 24//1 19//1 17//1
f 27//12 25//43 26//13
f 26//1 17//1 14//1
f 27//1 28//1 30//1
f 28//1 14//1 13//1
f 32//14 11//44 9//15
f 31//17 9//17 6//17
f 34//18 33//45 6//19
f 22//1 35//1 36//1
f 23//1 36//1 2//1
f 37//1 38//1 39//1
f 41//21 8//46 7//22
f 7//24 10//24 43//24
f 10//25 12//47 44//26
f 46//1 47//1 48//1
f 47//1 49//1 50//1
f 49//1 51//1 52//1
f 52//1 51//1 38//1
f 21//1 53//1 54//1
f 53//1 52//1 37//1
f 55//28 53//1 21//29
f 50//1 52//1 53//1
f 27//31 56//1 55//32
f 48//1 50//1 55//1
f 57//1 56//1 27//1
f 45//1 48//1 56//1
f 43//34 44//48 59//35
f 42//37 43//37 58//37
f 61//38 41//49 42//39
f 22//1 54//1 62//1
f 54//1 37//1 40//1
o Rocks_Cube.004
v 0.670003 0.217535 -1.003976
v 0.884677 0.217535 -0.855067
v 0.884677 -0.000635 -0.855067
v 0.670003 -0.000635 -1.003976
v 1.036130 0.217534 0.596024
v 0.925347 0.217534 0.824699
v 0.925347 -0.000636 0.824699
v 1.036130 -0.000636 0.596024
v 0.435904 0.159553 -0.801454
v 0.336670 0.217535 -1.115919
v 0.243019 0.346980 -1.032038
v 0.276741 0.346980 -0.925175
v 0.336670 0.217534 1.160685
v 0.003337 0.217534 1.212540
v 0.003337 -0.000636 1.212540
v 0.336670 -0.000636 1.160685
v 0.003337 0.217534 0.823682
v 0.195087 0.503177 1.050738
v 0.091881 0.516536 0.830149
v 1.068375 0.217535 -0.511797
v 1.068375 -0.000635 -0.511797
v 1.180226 0.217535 -0.203976
v 1.180226 -0.000635 -0.203976
v 1.180226 0.217534 0.196024
v 1.180226 -0.000636 0.196024
v 0.730337 0.134214 -0.664924
v 0.869596 0.374802 -0.435802
v 1.005208 0.374802 -0.442556
v 1.052840 0.331419 -0.088194
v 1.110585 0.331419 0.080242
v 0.872622 0.134213 0.196024
v 0.795261 0.134213 0.596024
v 0.891166 0.428592 0.486916
v 0.904115 0.382793 0.305132
v 0.670003 0.217534 0.996024
v 0.780116 0.386957 0.852792
v 0.831492 0.395173 0.688728
v 0.602354 0.500905 0.916427
v 0.473012 0.500905 0.980320
v 0.670003 -0.000636 0.996024
v 0.853091 0.394745 -0.789529
v 0.911545 0.394745 -0.680298
v 0.465141 0.426108 -0.979492
v 0.591155 0.426108 -0.937173
v 0.003337 0.217535 -1.166129
v 0.336670 -0.000635 -1.115919
v 0.003337 -0.000635 -1.166129
v 0.260191 0.452388 1.033286
v 0.252949 0.476362 0.850624
v 0.435904 0.120091 0.711100
v 0.650957 0.500905 0.761217
v 0.511517 0.500905 0.805869
v 0.884848 0.395173 0.782522
v 0.895847 0.395173 0.688728
v 1.000632 0.382793 0.401159
v 1.066118 0.382793 0.305132
v 0.961659 0.331419 -0.088194
v 1.001046 0.331419 0.080242
v 0.872622 0.134213 -0.203976
v 1.050080 0.374802 -0.354949
v 0.926677 0.374802 -0.319066
v 0.784779 0.394745 -0.836913
v 0.803978 0.394745 -0.729024
v 0.613964 0.426108 -0.808997
v 0.502656 0.426108 -0.860611
v 0.129744 0.346980 -1.049100
v 0.129744 0.346980 -0.949128
v 0.003337 0.120599 -0.871939
v -0.663330 0.217535 -1.003976
v -0.663330 -0.000635 -1.003976
v -0.878004 -0.000635 -0.855067
v -0.878004 0.217535 -0.855067
v -1.029457 0.217534 0.596024
v -1.029457 -0.000636 0.596024
v -0.918674 -0.000636 0.824699
v -0.918674 0.217534 0.824699
v -0.429231 0.159553 -0.801454
v -0.270068 0.346980 -0.925175
v -0.236345 0.346980 -1.032038
v -0.329997 0.217535 -1.115919
v -0.329997 0.217534 1.160685
v -0.329997 -0.000636 1.160685
v -0.085208 0.516536 0.830149
v -0.188413 0.503177 1.050738
v -1.061702 -0.000635 -0.511797
v -1.061702 0.217535 -0.511797
v -1.173553 -0.000635 -0.203976
v -1.173553 0.217535 -0.203976
v -1.173553 -0.000636 0.196024
v -1.173553 0.217534 0.196024
v -0.998535 0.374802 -0.442556
v -0.862922 0.374802 -0.435802
v -0.723664 0.134214 -0.664924
v -1.103912 0.331419 0.080242
v -1.046167 0.331419 -0.088194
v -0.865949 0.134213 0.196024
v -0.897442 0.382793 0.305132
v -0.884493 0.428592 0.486916
v -0.788588 0.134213 0.596024
v -0.824818 0.395173 0.688728
v -0.773442 0.386957 0.852792
v -0.663330 0.217534 0.996024
v -0.466338 0.500905 0.980320
v -0.595680 0.500905 0.916427
v -0.663330 -0.000636 0.996024
v -0.904871 0.394745 -0.680298
v -0.846417 0.394745 -0.789529
v -0.584481 0.426108 -0.937173
v -0.458467 0.426108 -0.979492
v -0.329997 -0.000635 -1.115919
v -0.253518 0.452388 1.033286
v -0.246275 0.476362 0.850624
v -0.429231 0.120091 0.711100
v -0.504844 0.500905 0.805869
v -0.644283 0.500905 0.761217
v -0.878174 0.395173 0.782522
v -0.889174 0.395173 0.688728
v -0.993958 0.382793 0.401159
v -1.059444 0.382793 0.305132
v -0.994373 0.331419 0.080242
v -0.954986 0.331419 -0.088194
v -0.865949 0.134213 -0.203976
v -1.043406 0.374802 -0.354949
v -0.920003 0.374802 -0.319066
v -0.797305 0.394745 -0.729024
v -0.778106 0.394745 -0.836913
v -0.607290 0.426108 -0.808997
v -0.495982 0.426108 -0.860611
v -0.123071 0.346980 -0.949128
v -0.123071 0.346980 -1.049100
vn 0.5700 0.0000 -0.8217
vn 0.9000 0.0000 0.4360
vn 0.7729 0.6109 -0.1717
vn 0.7700 0.6137 -0.1745
vn 0.7993 0.5833 -0.1447
vn 0.1537 -0.0000 0.9881
vn -0.8755 0.4522 0.1704
vn -0.8796 0.4320 0.1993
vn -0.8714 0.2489 0.4228
vn 0.8817 0.0000 -0.4718
vn 0.9399 -0.0000 -0.3415
vn 1.0000 -0.0000 0.0000
vn 0.9408 -0.0000 0.3389
vn 0.1229 0.5535 -0.8238
vn 0.1111 0.5427 -0.8325
vn -0.0459 0.3870 -0.9209
vn 0.7027 0.7030 -0.1095
vn 0.7896 0.6114 -0.0515
vn 0.8531 0.5217 0.0000
vn -0.9597 0.2277 -0.1646
vn -0.9596 0.2288 -0.1636
vn -0.9613 0.2034 -0.1859
vn -0.9115 0.2650 -0.3146
vn -0.9083 0.2701 -0.3194
vn -0.9321 0.2290 -0.2804
vn 0.4170 0.3367 0.8442
vn 0.5572 0.0000 0.8304
vn 0.4429 -0.0000 0.8966
vn 0.8369 0.3148 -0.4478
vn 0.2931 0.3903 -0.8728
vn 0.1489 0.0000 -0.9888
vn 0.3184 0.0000 -0.9480
vn 0.3407 0.9398 -0.0274
vn 0.4827 0.8755 0.0222
vn 0.6260 0.7760 0.0770
vn -0.0901 0.1887 -0.9779
vn -0.0445 0.1458 -0.9883
vn -0.1836 0.2753 -0.9437
vn 0.9125 0.4003 0.0848
vn 0.9107 0.4055 0.0784
vn 0.9218 0.3674 0.1238
vn 0.2051 0.4385 0.8750
vn 0.3345 0.4783 0.8120
vn 0.1398 0.4153 0.8989
vn 0.0000 1.0000 0.0000
vn 0.9289 0.2713 0.2521
vn 0.9249 0.2776 0.2600
vn 0.9111 0.2976 0.2853
vn -0.9323 0.2649 -0.2462
vn -0.9355 0.2602 -0.2391
vn -0.9479 0.2403 -0.2092
vn -0.2998 0.2890 -0.9092
vn -0.2967 0.2874 -0.9107
vn -0.3022 0.2901 -0.9080
vn -0.0409 0.9989 0.0233
vn -0.0248 0.9996 0.0141
vn -0.0567 0.9979 0.0322
vn -0.1051 0.3686 -0.9236
vn -0.0576 0.3538 -0.9335
vn -0.1301 0.3760 -0.9174
vn 0.8658 0.3868 0.3175
vn 0.8948 0.3554 0.2702
vn 0.9626 0.2463 0.1129
vn 0.5220 0.3161 0.7922
vn 0.5218 0.3159 0.7924
vn 0.5275 0.3218 0.7862
vn 0.1152 0.9866 -0.1158
vn 0.1194 0.9856 -0.1200
vn 0.2222 0.9491 -0.2233
vn -0.0768 0.4503 -0.8896
vn -0.0717 0.4472 -0.8916
vn -0.1305 0.4819 -0.8664
vn 0.7976 0.4855 0.3580
vn 0.8080 0.4726 0.3518
vn 0.6320 0.6440 0.4310
vn 0.0963 0.5085 0.8557
vn 0.3379 0.6049 0.7211
vn -0.1322 0.3821 0.9146
vn -0.1153 0.5792 -0.8070
vn -0.0991 0.5696 -0.8159
vn -0.1644 0.6068 -0.7777
vn -0.8622 0.5006 0.0772
vn -0.8714 0.4863 0.0644
vn -0.9114 0.4115 0.0000
vn -0.1071 0.6209 0.7765
vn -0.1016 0.6261 0.7731
vn -0.1553 0.5734 0.8044
vn -0.0302 0.5472 0.8365
vn 0.0236 0.5188 0.8545
vn 0.2595 0.3687 0.8926
vn -0.8971 0.3007 0.3237
vn -0.8922 0.3075 0.3307
vn -0.9220 0.2626 0.2846
vn 0.8320 0.4373 -0.3414
vn 0.8284 0.4410 -0.3455
vn 0.8571 0.4103 -0.3114
vn -0.4371 0.3528 0.8273
vn -0.4286 0.3473 0.8340
vn -0.3906 0.3225 0.8622
vn 0.5282 0.3758 -0.7615
vn -0.9141 0.3385 0.2234
vn -0.9194 0.3317 0.2115
vn -0.9029 0.3518 0.2471
vn -0.8929 0.3136 0.3230
vn -0.8976 0.3087 0.3147
vn -0.8838 0.3230 0.3385
vn -0.3885 0.2843 0.8765
vn -0.3931 0.2873 0.8734
vn -0.4022 0.2932 0.8673
vn 0.9304 0.3504 -0.1074
vn 0.9257 0.3594 -0.1184
vn 0.9393 0.3323 -0.0855
vn -0.8160 0.5619 0.1358
vn -0.8296 0.5478 0.1081
vn -0.7838 0.5898 0.1943
vn -0.1701 0.4156 0.8935
vn -0.1712 0.4168 0.8927
vn -0.1479 0.3922 0.9079
vn 0.1192 0.5993 -0.7916
vn 0.1192 0.5992 -0.7916
vn -0.5700 0.0000 -0.8217
vn -0.9000 0.0000 0.4360
vn -0.7700 0.6137 -0.1745
vn -0.7729 0.6109 -0.1717
vn -0.7993 0.5833 -0.1447
vn -0.1537 -0.0000 0.9881
vn 0.8755 0.4522 0.1704
vn 0.8796 0.4320 0.1993
vn 0.8303 0.5574 0.0000
vn -0.8817 0.0000 -0.4718
vn -0.9399 -0.0000 -0.3415
vn -1.0000 0.0000 0.0000
vn -0.9408 -0.0000 0.3389
vn -0.1229 0.5535 -0.8238
vn -0.1111 0.5427 -0.8325
vn -0.1945 0.6151 -0.7641
vn -0.7896 0.6114 -0.0515
vn -0.7027 0.7030 -0.1095
vn -0.8531 0.5217 0.0000
vn 0.9596 0.2288 -0.1636
vn 0.9597 0.2277 -0.1646
vn 0.9613 0.2034 -0.1859
vn 0.9115 0.2650 -0.3146
vn 0.9083 0.2701 -0.3194
vn 0.8935 0.2926 -0.3407
vn -0.4170 0.3367 0.8442
vn -0.5572 0.0000 0.8304
vn -0.4429 -0.0000 0.8966
vn -0.8369 0.3148 -0.4478
vn -0.2931 0.3903 -0.8728
vn -0.1489 0.0000 -0.9888
vn -0.3184 0.0000 -0.9480
vn -0.4827 0.8755 0.0222
vn -0.3407 0.9398 -0.0274
vn -0.6260 0.7760 0.0770
vn 0.0445 0.1458 -0.9883
vn 0.0901 0.1887 -0.9779
vn 0.1836 0.2753 -0.9437
vn -0.9107 0.4055 0.0784
vn -0.9125 0.4003 0.0848
vn -0.9218 0.3674 0.1238
vn -0.3345 0.4783 0.8120
vn -0.2051 0.4385 0.8750
vn -0.1398 0.4153 0.8989
vn -0.9289 0.2713 0.2521
vn -0.9249 0.2776 0.2600
vn -0.9355 0.2606 0.2387
vn 0.9323 0.2649 -0.2462
vn 0.9355 0.2602 -0.2391
vn 0.9240 0.2766 -0.2639
vn 0.2967 0.2874 -0.9107
vn 0.2998 0.2890 -0.9092
vn 0.3022 0.2901 -0.9080
vn 0.0409 0.9989 0.0233
vn 0.0248 0.9996 0.0141
vn 0.0576 0.3538 -0.9335
vn 0.1051 0.3686 -0.9236
vn 0.1301 0.3760 -0.9174
vn -0.8658 0.3868 0.3175
vn -0.8948 0.3554 0.2702
vn -0.8103 0.4351 0.3926
vn -0.5218 0.3159 0.7924
vn -0.5220 0.3161 0.7922
vn -0.5275 0.3218 0.7862
vn -0.1152 0.9866 -0.1158
vn -0.1194 0.9856 -0.1200
vn 0.0717 0.4472 -0.8916
vn 0.0768 0.4503 -0.8896
vn 0.1305 0.4819 -0.8664
vn -0.7976 0.4855 0.3580
vn -0.8080 0.4726 0.3518
vn -0.8656 0.3918 0.3118
vn -0.3380 0.6049 0.7211
vn -0.0963 0.5085 0.8557
vn 0.1322 0.3821 0.9146
vn 0.0991 0.5696 -0.8159
vn 0.1153 0.5792 -0.8070
vn 0.1644 0.6068 -0.7777
vn 0.8714 0.4863 0.0644
vn 0.8622 0.5006 0.0772
vn 0.9114 0.4115 0.0000
vn 0.1016 0.6261 0.7731
vn 0.1071 0.6209 0.7765
vn 0.1553 0.5734 0.8044
vn 0.0302 0.5472 0.8365
vn -0.0236 0.5188 0.8545
vn 0.1649 0.6086 0.7761
vn 0.8922 0.3075 0.3307
vn 0.8971 0.3007 0.3237
vn 0.9220 0.2626 0.2846
vn -0.8284 0.4410 -0.3455
vn -0.8320 0.4373 -0.3414
vn -0.8571 0.4103 -0.3114
vn 0.4371 0.3528 0.8273
vn 0.4286 0.3473 0.8340
vn 0.4573 0.3659 0.8105
vn -0.5282 0.3758 -0.7615
vn 0.9194 0.3317 0.2115
vn 0.9141 0.3385 0.2234
vn 0.9029 0.3518 0.2471
vn 0.8976 0.3087 0.3147
vn 0.8929 0.3136 0.3230
vn 0.8838 0.3230 0.3385
vn 0.3885 0.2843 0.8765
vn 0.3931 0.2873 0.8734
vn 0.3837 0.2812 0.8796
vn -0.9257 0.3594 -0.1184
vn -0.9304 0.3504 -0.1074
vn -0.9393 0.3323 -0.0855
vn 0.8296 0.5478 0.1081
vn 0.8160 0.5619 0.1358
vn 0.7838 0.5898 0.1943
vn 0.1701 0.4156 0.8935
vn 0.1712 0.4168 0.8927
vn 0.1828 0.4288 0.8847
vn -0.1192 0.5993 -0.7916
vn 0.7142 0.6627 -0.2254
vn -0.8303 0.5574 0.0000
vn 0.1945 0.6151 -0.7641
vn 0.5530 0.8113 -0.1896
vn -0.9558 0.2617 -0.1340
vn -0.8935 0.2926 -0.3407
vn 0.2485 0.9669 -0.0577
vn 0.1225 -0.0148 -0.9924
vn 0.8930 0.4494 0.0236
vn 0.5779 0.5265 0.6236
vn 0.9355 0.2606 0.2387
vn -0.9240 0.2766 -0.2639
vn -0.2923 0.2852 -0.9128
vn 0.0000 0.3347 -0.9423
vn 0.8103 0.4351 0.3926
vn 0.5135 0.3073 0.8012
vn 0.0000 0.4019 -0.9157
vn 0.8656 0.3918 0.3118
vn 0.6176 0.6518 0.4402
vn 0.0000 0.5063 -0.8624
vn -0.7723 0.6090 0.1806
vn 0.0000 0.7129 0.7012
vn -0.1649 0.6086 0.7761
vn -0.8306 0.3809 0.4062
vn 0.7772 0.4874 -0.3981
vn -0.4573 0.3659 0.8105
vn -0.9373 0.3060 0.1668
vn -0.9120 0.2923 0.2878
vn -0.3837 0.2812 0.8796
vn 0.9050 0.3937 -0.1610
vn -0.8731 0.4875 0.0000
vn -0.1828 0.4288 0.8847
vn -0.7142 0.6627 -0.2254
vn 0.8714 0.2489 0.4228
vn 0.0459 0.3870 -0.9209
vn -0.5530 0.8113 -0.1896
vn 0.9558 0.2617 -0.1340
vn 0.9321 0.2290 -0.2804
vn -0.2485 0.9669 -0.0577
vn -0.1225 -0.0148 -0.9924
vn -0.8930 0.4494 0.0236
vn -0.5779 0.5265 0.6236
vn -0.9111 0.2976 0.2853
vn 0.9479 0.2403 -0.2092
vn 0.2923 0.2852 -0.9128
vn 0.0567 0.9979 0.0322
vn -0.9626 0.2463 0.1129
vn -0.5135 0.3073 0.8012
vn -0.2222 0.9491 -0.2233
vn -0.6320 0.6440 0.4310
vn -0.6176 0.6518 0.4402
vn 0.7723 0.6090 0.1806
vn -0.2595 0.3687 0.8926
vn 0.8306 0.3809 0.4062
vn -0.7772 0.4874 -0.3981
vn 0.3906 0.3225 0.8622
vn 0.9373 0.3060 0.1668
vn 0.9120 0.2923 0.2878
vn 0.4022 0.2932 0.8673
vn -0.9050 0.3937 -0.1610
vn 0.8731 0.4875 0.0000
vn 0.1479 0.3922 0.9079
vn -0.1192 0.5992 -0.7916
usemtl Material.003
s 1
f 64//50 66//50 63//50
f 68//51 70//51 67//51
f 72//52 74//53 71//54
f 76//55 78//55 75//55
f 79//56 80//57 81//58
f 82//59 65//59 64//59
f 84//60 83//60 82//60
f 86//61 85//61 84//61
f 67//62 87//62 86//62
f 82//63 89//64 90//65
f 84//66 92//67 86//68
f 94//69 96//70 93//71
f 94//72 98//73 99//74
f 97//75 101//75 75//75
f 97//76 69//76 68//76
f 75//77 102//77 97//77
f 64//78 104//78 82//78
f 63//79 105//79 106//79
f 72//80 109//80 107//80
f 63//81 108//81 72//81
f 111//82 80//83 110//84
f 79//85 111//86 112//87
f 112//88 110//89 75//90
f 75//91 80//92 76//93
f 100//94 114//94 101//94
f 97//95 113//96 100//97
f 112//98 101//99 114//100
f 112//101 113//102 94//103
f 115//104 99//105 98//106
f 94//107 116//108 67//109
f 68//110 116//111 115//112
f 68//113 98//114 97//115
f 117//116 96//117 95//118
f 93//119 118//120 86//121
f 67//122 118//123 117//124
f 67//125 95//126 94//127
f 91//94 120//94 92//94
f 121//128 91//129 84//130
f 93//131 119//132 121//133
f 86//134 120//135 93//136
f 90//94 123//94 122//94
f 121//137 122//138 123//139
f 121//140 89//141 88//142
f 82//143 122//144 84//145
f 103//94 125//94 104//94
f 88//146 104//147 125//148
f 64//149 124//149 103//149
f 88//150 124//151 63//152
f 106//94 127//94 126//94
f 71//153 105//154 72//155
f 71//156 126//157 127//158
f 63//159 126//160 88//161
f 73//94 129//94 74//94
f 130//162 128//163 107//164
f 130//165 74//166 129//167
f 72//168 128//168 73//169
f 132//170 134//170 131//170
f 136//171 138//171 135//171
f 140//172 142//173 139//174
f 144//175 76//175 143//175
f 79//176 146//177 76//178
f 133//179 148//179 134//179
f 147//180 150//180 148//180
f 149//181 152//181 150//181
f 151//182 135//182 152//182
f 148//183 154//184 155//185
f 156//186 150//187 152//188
f 159//189 161//190 158//191
f 161//192 163//193 164//194
f 165//195 164//195 143//195
f 137//196 164//196 138//196
f 167//197 143//197 164//197
f 168//198 134//198 148//198
f 131//199 171//199 142//199
f 109//200 142//200 107//200
f 172//201 131//201 142//201
f 146//202 174//203 173//204
f 174//205 79//206 175//207
f 173//208 175//209 143//210
f 146//211 143//212 76//213
f 166//94 176//94 177//94
f 164//214 177//215 161//216
f 175//217 165//218 143//219
f 177//220 175//221 161//222
f 178//223 162//224 179//94
f 179//225 161//226 135//227
f 138//228 179//229 135//230
f 163//231 138//232 164//233
f 180//234 159//235 181//94
f 181//236 158//237 152//238
f 135//239 181//240 152//241
f 160//242 135//243 161//244
f 182//94 157//94 156//94
f 157//245 184//246 150//247
f 183//248 158//249 184//250
f 182//251 152//252 158//253
f 186//94 153//94 185//94
f 184//254 185//255 150//256
f 154//257 184//258 155//259
f 185//260 148//261 150//262
f 187//94 169//94 168//94
f 155//263 168//264 148//265
f 134//266 188//266 131//266
f 188//267 155//268 131//269
f 190//94 170//94 189//94
f 171//270 139//271 142//272
f 139//273 189//274 155//275
f 189//276 131//277 155//278
f 191//94 141//94 140//94
f 192//279 130//280 107//281
f 130//282 140//283 139//284
f 142//285 192//285 107//285
f 64//50 65//50 66//50
f 68//51 69//51 70//51
f 72//52 73//286 74//53
f 76//55 77//55 78//55
f 79//56 76//287 80//57
f 82//59 83//59 65//59
f 84//60 85//60 83//60
f 86//61 87//61 85//61
f 67//62 70//62 87//62
f 82//63 88//288 89//64
f 84//66 91//289 92//67
f 94//69 95//290 96//70
f 94//72 97//291 98//73
f 97//75 100//75 101//75
f 97//76 102//76 69//76
f 75//77 78//77 102//77
f 64//78 103//78 104//78
f 63//79 72//79 105//79
f 72//80 108//80 109//80
f 63//81 66//81 108//81
f 111//82 81//292 80//83
f 79//85 81//293 111//86
f 112//88 111//294 110//89
f 75//91 110//295 80//92
f 100//94 113//94 114//94
f 97//95 94//296 113//96
f 112//98 75//297 101//99
f 112//101 114//298 113//102
f 115//104 116//94 99//105
f 94//107 99//299 116//108
f 68//110 67//300 116//111
f 68//113 115//301 98//114
f 117//116 118//94 96//117
f 93//119 96//302 118//120
f 67//122 86//303 118//123
f 67//125 117//304 95//126
f 91//94 119//94 120//94
f 121//128 119//305 91//129
f 93//131 120//306 119//132
f 86//134 92//307 120//135
f 90//94 89//94 123//94
f 121//137 84//308 122//138
f 121//140 123//309 89//141
f 82//143 90//310 122//144
f 103//94 124//94 125//94
f 88//146 82//311 104//147
f 64//149 63//149 124//149
f 88//150 125//312 124//151
f 106//94 105//94 127//94
f 71//153 127//313 105//154
f 71//156 88//314 126//157
f 63//159 106//315 126//160
f 73//94 128//94 129//94
f 130//162 129//316 128//163
f 130//165 71//317 74//166
f 72//168 107//168 128//168
f 132//170 133//170 134//170
f 136//171 137//171 138//171
f 140//172 141//318 142//173
f 144//175 77//175 76//175
f 79//176 145//319 146//177
f 133//179 147//179 148//179
f 147//180 149//180 150//180
f 149//181 151//181 152//181
f 151//182 136//182 135//182
f 148//183 153//320 154//184
f 156//186 157//321 150//187
f 159//189 160//322 161//190
f 161//192 162//323 163//193
f 165//195 166//195 164//195
f 137//196 167//196 164//196
f 167//197 144//197 143//197
f 168//198 169//198 134//198
f 131//199 170//199 171//199
f 109//200 172//200 142//200
f 172//201 132//201 131//201
f 146//202 145//324 174//203
f 174//205 145//325 79//206
f 173//208 174//326 175//209
f 146//211 173//327 143//212
f 166//94 165//94 176//94
f 164//214 166//328 177//215
f 175//217 176//329 165//218
f 177//220 176//330 175//221
f 178//223 163//331 162//224
f 179//225 162//299 161//226
f 138//228 178//332 179//229
f 163//231 178//333 138//232
f 180//234 160//334 159//235
f 181//236 159//302 158//237
f 135//239 180//335 181//240
f 160//242 180//336 135//243
f 182//94 183//94 157//94
f 157//245 183//305 184//246
f 183//248 182//337 158//249
f 182//251 156//307 152//252
f 186//94 154//94 153//94
f 184//254 186//338 185//255
f 154//257 186//339 184//258
f 185//260 153//340 148//261
f 187//94 188//94 169//94
f 155//263 187//341 168//264
f 134//266 169//266 188//266
f 188//267 187//342 155//268
f 190//94 171//94 170//94
f 171//270 190//343 139//271
f 139//273 190//344 189//274
f 189//276 170//345 131//277
f 191//94 192//94 141//94
f 192//279 191//346 130//280
f 130//282 191//347 140//283
f 142//285 141//348 192//285
