# Blender v2.78 (sub 0) OBJ File: 'wheel.blend'
# www.blender.org
mtllib wheel.mtl
o Cylinder
v -1.099788 3.291134 -2.304477
v 1.099787 3.291134 -2.304477
v -1.099788 4.017121 0.070119
v 1.099787 4.017121 0.070119
v -1.099788 3.208704 2.417932
v 1.099788 3.208704 2.417932
v -1.099788 1.174671 3.842177
v 1.099788 1.174671 3.842177
v -1.099787 -1.308047 3.798841
v 1.099788 -1.308047 3.798841
v -1.099787 -3.291135 2.304476
v 1.099788 -3.291135 2.304476
v -1.099787 -4.017121 -0.070120
v 1.099788 -4.017121 -0.070120
v -1.099787 -3.208705 -2.417932
v 1.099788 -3.208705 -2.417932
v -1.099788 -1.174671 -3.842178
v 1.099788 -1.174671 -3.842178
v -1.099788 1.308047 -3.798841
v 1.099787 1.308047 -3.798841
vt 0.5000 0.1910
vt 0.2500 0.0000
vt 0.4045 0.0528
vt 0.5000 0.1910
vt 0.5955 0.5000
vt 0.5000 0.3618
vt 0.2878 0.6910
vt 0.1439 0.6910
vt 0.1439 0.5528
vt 0.0000 0.1910
vt 0.0955 0.0528
vt 0.2878 0.6910
vt 0.4317 0.8618
vt 0.2878 0.8618
vt 0.0000 0.5528
vt 0.1439 0.6910
vt 0.2878 1.0000
vt 0.1439 0.8618
vt 0.2878 0.8618
vt 0.2878 0.5528
vt 0.4317 0.6910
vt 0.0000 0.6910
vt 0.1439 0.8618
vt 0.9045 0.5000
vt 0.7500 0.0000
vt 0.9045 0.0528
vt 0.5756 0.6910
vt 0.4317 0.5528
vt 0.5756 0.5528
vt 0.0000 0.8618
vt 0.1439 1.0000
vt 0.5756 0.8618
vt 0.4317 0.6910
vt 0.4317 0.8618
vt 0.5955 0.0528
vt 0.0000 1.0000
vt 1.0000 0.1910
vt 1.0000 0.3618
vt 0.2878 0.5528
vt 0.1439 1.0000
vt 0.7500 0.5528
vt 0.4045 0.5000
vt 0.0955 0.5000
vt 0.0000 0.3618
vt 0.2500 0.5528
vt 0.5000 0.3618
vn -1.0000 0.0000 -0.0000
vn 1.0000 0.0000 -0.0000
vn -0.0000 0.9563 -0.2924
vn 0.0000 -0.5736 -0.8192
vn 0.0000 0.9455 0.3256
vn 0.0000 0.0175 -0.9998
vn 0.0000 -0.9455 -0.3256
vn 0.0000 0.5736 0.8192
vn 0.0000 -0.9563 0.2924
vn -0.0000 -0.0175 0.9998
vn 0.0000 -0.6018 0.7986
vn 0.0000 0.6018 -0.7986
usemtl Material.014
s off
f 19/1/1 3/2/1 1/3/1
f 6/4/2 2/5/2 4/6/2
f 2/7/3 1/8/3 3/9/3
f 3/2/1 7/10/1 5/11/1
f 16/12/4 17/13/4 18/14/4
f 4/15/5 3/9/5 5/16/5
f 18/17/6 19/18/6 20/19/6
f 14/20/7 15/21/7 16/12/7
f 6/22/8 5/16/8 7/23/8
f 18/24/2 10/25/2 12/26/2
f 12/27/9 13/28/9 14/29/9
f 8/30/10 7/23/10 9/31/10
f 6/4/2 10/25/2 2/5/2
f 10/32/11 11/33/11 12/27/11
f 10/32/11 9/34/11 11/33/11
f 10/25/2 6/4/2 8/35/2
f 8/30/10 9/31/10 10/36/10
f 12/27/9 11/33/9 13/28/9
f 14/37/2 18/24/2 12/26/2
f 6/22/8 7/23/8 8/30/8
f 14/20/7 13/28/7 15/21/7
f 18/24/2 14/37/2 16/38/2
f 4/15/5 5/16/5 6/22/5
f 16/12/4 15/21/4 17/13/4
f 18/24/2 2/5/2 10/25/2
f 2/7/3 3/9/3 4/39/3
f 18/17/6 17/40/6 19/18/6
f 20/19/12 1/8/12 2/7/12
f 2/5/2 18/24/2 20/41/2
f 20/19/12 19/18/12 1/8/12
f 7/10/1 3/2/1 15/42/1
f 7/10/1 11/43/1 9/44/1
f 11/43/1 7/10/1 13/45/1
f 15/42/1 19/1/1 17/46/1
f 19/1/1 15/42/1 3/2/1
f 7/10/1 15/42/1 13/45/1
